<svg xmlns="http://www.w3.org/2000/svg" xmlns:xlink="http://www.w3.org/1999/xlink" viewBox="0 0 405.11 309.79"><defs><style>.cls-1,.cls-2,.cls-7{fill:#a4df90;}.cls-1,.cls-10,.cls-11,.cls-13,.cls-14,.cls-16,.cls-17,.cls-18,.cls-19,.cls-2,.cls-5,.cls-6,.cls-9{stroke:#438e29;}.cls-1,.cls-10,.cls-11,.cls-13,.cls-14,.cls-16,.cls-17,.cls-18,.cls-19,.cls-2,.cls-20,.cls-21,.cls-5,.cls-6,.cls-9{stroke-linejoin:round;}.cls-1,.cls-10,.cls-6{stroke-width:1.8px;}.cls-11,.cls-14,.cls-17,.cls-19,.cls-2{stroke-width:2.12px;}.cls-3{opacity:0.46;}.cls-4{fill:#e8ebef;}.cls-11,.cls-5,.cls-9{fill:#cbedc0;}.cls-5{stroke-width:2.18px;}.cls-10,.cls-14,.cls-17,.cls-20,.cls-21,.cls-6{fill:none;}.cls-11,.cls-14,.cls-18,.cls-19,.cls-21,.cls-6{stroke-linecap:round;}.cls-8{clip-path:url(#clip-path);}.cls-16,.cls-18,.cls-9{stroke-width:2px;}.cls-12{clip-path:url(#clip-path-2);}.cls-13,.cls-16,.cls-18,.cls-19{fill:#fff;}.cls-13{stroke-width:2.42px;}.cls-15{clip-path:url(#clip-path-3);}.cls-20{font-size:19px;font-family:Linearicons, Linearicons;}.cls-20,.cls-21{stroke:#cbedc0;}.cls-21{stroke-width:1.08px;}</style><clipPath id="clip-path"><circle class="cls-1" cx="301.79" cy="119.61" r="45.95"/></clipPath><clipPath id="clip-path-2"><circle class="cls-1" cx="110.64" cy="119.61" r="45.95"/></clipPath><clipPath id="clip-path-3"><circle class="cls-2" cx="206.22" cy="157.13" r="54.23"/></clipPath></defs><title>Asset 19</title><g id="Layer_2" data-name="Layer 2"><g id="Layer_2-2" data-name="Layer 2"><g class="cls-3"><rect class="cls-4" x="41.18" y="192.91" width="293.76" height="77.67" rx="36.94" ry="36.94"/><rect class="cls-4" x="111.35" y="134.03" width="293.76" height="77.67" rx="36.94" ry="36.94"/><rect class="cls-4" x="63.46" y="30.82" width="182.11" height="73.87" rx="36.94" ry="36.94"/><rect class="cls-4" x="93.46" y="58.92" width="293.76" height="77.67" rx="36.94" ry="36.94"/><rect class="cls-4" y="133.77" width="293.76" height="77.67" rx="36.94" ry="36.94"/><rect class="cls-4" x="37.65" y="96.18" width="293.76" height="77.67" rx="36.94" ry="36.94"/><rect class="cls-4" x="136.18" y="232.11" width="146.88" height="77.67" rx="36.94" ry="36.94"/></g><rect class="cls-5" x="237.33" y="56.82" width="128.93" height="179.98" rx="3" ry="3"/><line class="cls-6" x1="265.3" y1="181.7" x2="338.29" y2="181.7"/><line class="cls-6" x1="265.3" y1="190.7" x2="338.29" y2="190.7"/><circle class="cls-7" cx="301.79" cy="119.61" r="45.95"/><g class="cls-8"><path class="cls-9" d="M308.74,127.55a19.75,19.75,0,0,0,11.89-18.14A19.37,19.37,0,0,0,301.42,90a19.12,19.12,0,0,0-19.21,19.11c0,8.07,5,15.7,12,18.54-16.25,4-26.89,18.53-27.32,41.53h69.74C336.67,146.18,325.19,131.24,308.74,127.55Z"/></g><circle class="cls-10" cx="301.79" cy="119.61" r="45.95"/><rect class="cls-7" x="276.77" y="202.85" width="50.05" height="17.1" rx="3" ry="3"/><polygon class="cls-9" points="329.57 160.18 329.57 177.15 334.5 173.1 339.57 177.27 339.57 160.18 329.57 160.18"/><path class="cls-5" d="M347.68,152.1a11.79,11.79,0,0,0-.16-1.92l-3-.88,1.9-2.47a11.76,11.76,0,0,0-2.24-3.08l-2.93,1,.09-3.11a11.64,11.64,0,0,0-3.62-1.18L336,143.07l-1.76-2.57a11.64,11.64,0,0,0-3.62,1.18l.09,3.11-2.93-1a11.76,11.76,0,0,0-2.24,3.08l1.9,2.47-3,.88a11.68,11.68,0,0,0,0,3.8l3,.88-1.91,2.48a11.76,11.76,0,0,0,2.23,3.07l3-1.05-.09,3.14a11.64,11.64,0,0,0,3.6,1.18l1.78-2.6,1.78,2.6a11.64,11.64,0,0,0,3.6-1.18l-.09-3.14,3,1.05a11.76,11.76,0,0,0,2.23-3.07l-1.91-2.48,3-.88A11.8,11.8,0,0,0,347.68,152.1Z"/><line class="cls-11" x1="331.89" y1="151.93" x2="334.56" y2="154.6"/><line class="cls-11" x1="340.04" y1="149.37" x2="334.7" y2="154.71"/><rect class="cls-5" x="46.18" y="56.82" width="128.93" height="179.98" rx="3" ry="3"/><line class="cls-6" x1="74.15" y1="181.7" x2="147.14" y2="181.7"/><line class="cls-6" x1="74.15" y1="190.7" x2="147.14" y2="190.7"/><circle class="cls-7" cx="110.64" cy="119.61" r="45.95"/><g class="cls-12"><path class="cls-9" d="M117.58,127.55a19.75,19.75,0,0,0,11.89-18.14A19.37,19.37,0,0,0,110.27,90a19.12,19.12,0,0,0-19.21,19.11c0,8.07,5,15.7,12,18.54-16.25,4-26.89,18.53-27.32,41.53h69.74C145.52,146.18,134,131.24,117.58,127.55Z"/></g><circle class="cls-10" cx="110.64" cy="119.61" r="45.95"/><rect class="cls-7" x="85.62" y="202.85" width="50.05" height="17.1" rx="3" ry="3"/><rect class="cls-13" x="134.52" y="90.11" width="143.39" height="200.16" rx="3" ry="3"/><line class="cls-14" x1="163.14" y1="230.41" x2="249.29" y2="230.41"/><line class="cls-14" x1="163.14" y1="241.03" x2="249.29" y2="241.03"/><circle class="cls-7" cx="206.22" cy="157.13" r="54.23"/><g class="cls-15"><path class="cls-16" d="M214.74,166.27a23.15,23.15,0,0,0,14-21.3,22.67,22.67,0,1,0-45.34-.26c0,9.53,5.89,18.32,14.21,21.67-19.17,4.69-31.74,21.8-32.25,48.8h82.3C247.71,188.18,234.16,170.63,214.74,166.27Z"/></g><circle class="cls-17" cx="206.22" cy="157.13" r="54.23"/><line class="cls-14" x1="183.73" y1="139.51" x2="227.49" y2="139.51"/><line class="cls-14" x1="224.8" y1="170.86" x2="224.8" y2="184.74"/><line class="cls-14" x1="186.92" y1="170.86" x2="186.92" y2="184.74"/><line class="cls-14" x1="173.12" y1="185.85" x2="240.07" y2="185.85"/><polygon class="cls-18" points="234.57 204.18 234.57 220.69 240 216.64 245.57 220.81 245.57 204.18 234.57 204.18"/><path class="cls-19" d="M253.17,195.64a11.79,11.79,0,0,0-.16-1.92l-3-.88,1.9-2.47a11.76,11.76,0,0,0-2.24-3.08l-2.93,1,.09-3.11A11.64,11.64,0,0,0,243.2,184l-1.76,2.57L239.68,184a11.64,11.64,0,0,0-3.62,1.18l.09,3.11-2.93-1a11.76,11.76,0,0,0-2.24,3.08l1.9,2.47-3,.88a11.68,11.68,0,0,0,0,3.8l3,.88L231,200.89a11.76,11.76,0,0,0,2.23,3.07l3-1.05-.09,3.14a11.64,11.64,0,0,0,3.6,1.18l1.78-2.6,1.78,2.6a11.64,11.64,0,0,0,3.6-1.18l-.09-3.14,3,1.05a11.76,11.76,0,0,0,2.23-3.07L250,198.41l3-.88A11.8,11.8,0,0,0,253.17,195.64Z"/><line class="cls-19" x1="237.37" y1="195.47" x2="240.04" y2="198.14"/><line class="cls-19" x1="245.52" y1="192.91" x2="240.19" y2="198.25"/><rect class="cls-7" x="176.68" y="255.36" width="59.07" height="20.18" rx="3" ry="3"/><text class="cls-20" transform="translate(249.38 28.92)">star</text><text class="cls-20" transform="translate(356.78 41.18)">star</text><text class="cls-20" transform="translate(6.27 91.92)">star</text><text class="cls-20" transform="translate(189.38 58.92)">star</text><line class="cls-21" x1="316.99" y1="27.84" x2="302.38" y2="27.84"/><line class="cls-21" x1="309.69" y1="20.54" x2="309.69" y2="35.14"/><line class="cls-21" x1="86.99" y1="17.84" x2="72.38" y2="17.84"/><line class="cls-21" x1="79.69" y1="10.54" x2="79.69" y2="25.14"/><line class="cls-21" x1="204.99" y1="7.84" x2="190.38" y2="7.84"/><line class="cls-21" x1="197.69" y1="0.54" x2="197.69" y2="15.14"/><text class="cls-20" transform="translate(124.27 18.96)">star</text></g></g></svg>