<svg xmlns="http://www.w3.org/2000/svg" viewBox="0 0 398.67 311.71"><defs><style>.cls-1,.cls-11,.cls-2,.cls-3,.cls-4,.cls-8,.cls-9{fill:none;}.cls-1,.cls-2,.cls-3,.cls-4{stroke:#cbedc0;}.cls-1,.cls-10,.cls-11,.cls-2,.cls-3,.cls-4,.cls-7,.cls-8,.cls-9{stroke-linejoin:round;}.cls-1,.cls-10,.cls-11,.cls-3,.cls-7,.cls-8{stroke-width:2px;}.cls-1{stroke-dasharray:7.91;}.cls-2{stroke-width:1.7px;stroke-dasharray:10.22;}.cls-3{stroke-dasharray:12;}.cls-4{font-size:19px;font-family:Linearicons, Linearicons;}.cls-5{opacity:0.46;}.cls-6{fill:#e8ebef;}.cls-13,.cls-7{fill:#fff;}.cls-10,.cls-11,.cls-7,.cls-8,.cls-9{stroke:#438e29;}.cls-11,.cls-9{stroke-linecap:round;}.cls-9{stroke-width:3px;}.cls-10{fill:#cbedc0;}.cls-12{fill:#51af33;opacity:0.1;}</style></defs><title>Asset 18</title><g id="Layer_2" data-name="Layer 2"><g id="Layer_2-2" data-name="Layer 2"><circle class="cls-1" cx="291.91" cy="179.29" r="32.91"/><circle class="cls-1" cx="165.98" cy="45.44" r="32.91"/><circle class="cls-2" cx="130.79" cy="129.98" r="42.52"/><circle class="cls-3" cx="265.2" cy="91.32" r="49.91"/><text class="cls-4" transform="translate(292.65 37.63)">heart</text><text class="cls-4" transform="translate(223.58 17.6)">heart</text><text class="cls-4" transform="translate(154.99 41.41)">heart</text><text class="cls-4" transform="translate(73.98 75.23)">heart</text><text class="cls-4" transform="translate(333.5 92.17)">heart</text><text class="cls-4" transform="translate(116.48 132.97)">heart</text><g class="cls-5"><rect class="cls-6" x="56.05" y="192.85" width="269.15" height="78.99" rx="36.94" ry="36.94"/><rect class="cls-6" x="129.51" y="132.97" width="269.15" height="78.99" rx="36.94" ry="36.94"/><rect class="cls-6" x="122.28" y="56.58" width="269.15" height="78.99" rx="36.94" ry="36.94"/><rect class="cls-6" y="132.7" width="269.15" height="78.99" rx="36.94" ry="36.94"/><rect class="cls-6" x="52.82" y="94.47" width="269.15" height="78.99" rx="36.94" ry="36.94"/><rect class="cls-6" x="161.35" y="7.62" width="134.58" height="78.99" rx="36.94" ry="36.94"/><rect class="cls-6" x="143.1" y="232.72" width="134.58" height="78.99" rx="36.94" ry="36.94"/></g><rect class="cls-7" x="81.08" y="153.17" width="115" height="141" rx="3" ry="3"/><rect class="cls-7" x="92.08" y="250.17" width="15" height="15" rx="3" ry="3"/><rect class="cls-7" x="92.08" y="212.17" width="15" height="15" rx="3" ry="3"/><rect class="cls-7" x="92.08" y="173.17" width="15" height="15" rx="3" ry="3"/><line class="cls-8" x1="123.08" y1="181.17" x2="179.08" y2="181.17"/><line class="cls-8" x1="123.08" y1="219.17" x2="179.08" y2="219.17"/><line class="cls-8" x1="123.08" y1="258.17" x2="179.08" y2="258.17"/><line class="cls-9" x1="94.12" y1="177.57" x2="100" y2="184.13"/><line class="cls-9" x1="115.37" y1="169.09" x2="100.31" y2="184.15"/><line class="cls-9" x1="94.47" y1="254.04" x2="100.35" y2="260.6"/><line class="cls-9" x1="115.72" y1="245.57" x2="100.66" y2="260.63"/><line class="cls-9" x1="94.47" y1="216.04" x2="100.35" y2="222.6"/><line class="cls-9" x1="115.72" y1="207.57" x2="100.66" y2="222.63"/><rect class="cls-10" x="153.08" y="44.17" width="124" height="219" rx="6" ry="6"/><rect class="cls-7" x="170.08" y="75.17" width="91" height="157"/><circle class="cls-7" cx="216.39" cy="247.21" r="5.39"/><line class="cls-11" x1="195.08" y1="58.17" x2="235.08" y2="58.17"/><circle class="cls-7" cx="216.35" cy="157.97" r="22.03"/><line class="cls-9" x1="205.62" y1="158.93" x2="211.56" y2="165.56"/><line class="cls-9" x1="227.08" y1="150.36" x2="211.86" y2="165.58"/><polygon class="cls-12" points="172.08 78.17 259.85 78.17 172.08 231.48 172.08 78.17"/><path class="cls-13" d="M213.86,110.17h-2.48c-1.88,0-2.3,0-2.3-1.9V80.17h6v28.1C215.08,110.17,215.74,110.17,213.86,110.17Z"/><path class="cls-13" d="M225.2,106.17h-2.36c-.91,0-2.76,0-2.76-.93V80.17h7v25.3C227.08,105.9,225.63,106.17,225.2,106.17Z"/></g></g></svg>