<svg xmlns="http://www.w3.org/2000/svg" viewBox="0 0 435.11 333.84"><defs><style>.cls-1{opacity:0.46;}.cls-2{fill:#e8ebef;}.cls-10,.cls-12,.cls-16,.cls-19,.cls-21,.cls-3,.cls-4,.cls-8{fill:none;}.cls-3,.cls-4{stroke:#cbedc0;}.cls-12,.cls-14,.cls-21,.cls-22,.cls-23,.cls-3,.cls-4{stroke-linecap:round;}.cls-10,.cls-11,.cls-12,.cls-13,.cls-14,.cls-16,.cls-17,.cls-18,.cls-19,.cls-21,.cls-22,.cls-23,.cls-3,.cls-4,.cls-5,.cls-6,.cls-8{stroke-linejoin:round;}.cls-3{stroke-width:1.08px;}.cls-21,.cls-4,.cls-5,.cls-6,.cls-8{stroke-width:2px;}.cls-17,.cls-18,.cls-23,.cls-5,.cls-9{fill:#cbedc0;}.cls-10,.cls-11,.cls-12,.cls-13,.cls-14,.cls-16,.cls-17,.cls-18,.cls-20,.cls-21,.cls-22,.cls-23,.cls-5,.cls-6,.cls-8{stroke:#438e29;}.cls-13,.cls-14,.cls-20,.cls-22,.cls-6{fill:#fff;}.cls-7{fill:#438e29;}.cls-11{fill:#a4df90;}.cls-11,.cls-16,.cls-17,.cls-20{stroke-width:3px;}.cls-12{stroke-width:1.82px;}.cls-13{stroke-width:2.74px;}.cls-14{stroke-width:1.31px;}.cls-15{fill:#51af33;opacity:0.1;}.cls-18{stroke-width:1.28px;}.cls-19{stroke:#fbfffa;stroke-width:2.57px;}.cls-20{stroke-miterlimit:10;}</style></defs><title>Asset 17</title><g id="Layer_2" data-name="Layer 2"><g id="Layer_2-2" data-name="Layer 2"><g class="cls-1"><rect class="cls-2" x="61.18" y="216.97" width="293.76" height="77.67" rx="36.94" ry="36.94"/><rect class="cls-2" x="141.35" y="158.09" width="293.76" height="77.67" rx="36.94" ry="36.94"/><rect class="cls-2" x="133.46" y="82.98" width="293.76" height="77.67" rx="36.94" ry="36.94"/><rect class="cls-2" y="157.82" width="293.76" height="77.67" rx="36.94" ry="36.94"/><rect class="cls-2" x="57.65" y="120.24" width="293.76" height="77.67" rx="36.94" ry="36.94"/><rect class="cls-2" x="176.1" y="34.84" width="146.88" height="77.67" rx="36.94" ry="36.94"/><rect class="cls-2" x="156.18" y="256.17" width="146.88" height="77.67" rx="36.94" ry="36.94"/></g><line class="cls-3" x1="302.81" y1="7.84" x2="288.21" y2="7.84"/><line class="cls-3" x1="295.51" y1="0.54" x2="295.51" y2="15.14"/><line class="cls-3" x1="395.04" y1="112.51" x2="380.43" y2="112.51"/><line class="cls-3" x1="387.74" y1="105.21" x2="387.74" y2="119.81"/><line class="cls-3" x1="168.78" y1="20.24" x2="154.18" y2="20.24"/><line class="cls-3" x1="161.48" y1="12.94" x2="161.48" y2="27.54"/><line class="cls-3" x1="71.99" y1="108.38" x2="57.38" y2="108.38"/><line class="cls-3" x1="64.68" y1="101.08" x2="64.68" y2="115.68"/><circle class="cls-4" cx="263.54" cy="41.04" r="6.2"/><circle class="cls-4" cx="349.57" cy="41.04" r="6.2"/><circle class="cls-4" cx="129.67" cy="67.21" r="6.2"/><path class="cls-5" d="M327.36,131.88c-1,0-1.82.37-1.82,1.38l-1.82,49a1.66,1.66,0,0,0,1.82,1.62h11.85A1.84,1.84,0,0,0,339.2,182l-1.82-48.77c0-1-.82-1.39-1.82-1.39Z"/><path class="cls-6" d="M361.07,84.53s-6.31-17.19-19.13-17.31c-4.61,0-20,.1-20,.1l-1.82,5.56h-5v9h5l1.82,3h16.95L341,81.51S350.86,74.72,361.07,84.53Z"/><rect class="cls-6" x="310.07" y="71.88" width="6" height="13" rx="2.53" ry="2.53"/><circle class="cls-7" cx="329.18" cy="154.68" r="0.91"/><circle class="cls-7" cx="329.18" cy="145.57" r="0.91"/><circle class="cls-7" cx="333.73" cy="145.57" r="0.91"/><circle class="cls-7" cx="329.18" cy="150.13" r="0.91"/><ellipse class="cls-7" cx="333.81" cy="154.68" rx="0.97" ry="0.91"/><circle class="cls-7" cx="333.73" cy="150.13" r="0.91"/><rect class="cls-8" x="327.07" y="84.88" width="9" height="47"/><rect class="cls-9" x="308.07" y="106.88" width="42" height="2" transform="translate(221.19 436.95) rotate(-90)"/><line class="cls-10" x1="327.07" y1="92.38" x2="336.07" y2="92.38"/><rect class="cls-11" x="128.57" y="102.38" width="162" height="123" rx="3" ry="3"/><rect class="cls-6" x="144.07" y="112.88" width="135" height="102" rx="3" ry="3"/><line class="cls-12" x1="129.94" y1="103.33" x2="210.41" y2="22.86"/><line class="cls-12" x1="210.67" y1="23.12" x2="290.49" y2="102.94"/><polygon class="cls-6" points="178.05 183.38 210.49 214.88 145.62 214.88 178.05 183.38"/><polygon class="cls-6" points="228.59 171.67 273.08 214.88 184.09 214.88 228.59 171.67"/><circle class="cls-13" cx="243.44" cy="142.24" r="13.89"/><line class="cls-14" x1="215.66" y1="184.84" x2="222.14" y2="190.4"/><line class="cls-14" x1="226.77" y1="185.77" x2="222.14" y2="190.4"/><line class="cls-14" x1="226.77" y1="185.77" x2="234.18" y2="193.18"/><line class="cls-14" x1="234.18" y1="193.18" x2="242.52" y2="185.77"/><polygon class="cls-15" points="144.07 113.88 144.07 214.49 276.97 113.88 144.07 113.88"/><circle class="cls-7" cx="210.38" cy="22.78" r="3.94"/><polyline class="cls-16" points="95.07 174.38 111.57 174.38 111.57 201.38 54.57 201.38 54.57 234.88"/><rect class="cls-5" x="8.07" y="159.88" width="94" height="28" rx="3" ry="3"/><rect class="cls-6" x="48.07" y="225.88" width="13" height="44" rx="3" ry="3"/><ellipse class="cls-17" cx="5.26" cy="173.46" rx="2.01"/><path class="cls-9" d="M50.69,226.88h3.38a0,0,0,0,1,0,0v42a0,0,0,0,1,0,0H52a2.93,2.93,0,0,1-2.93-2.93V228.5A1.62,1.62,0,0,1,50.69,226.88Z"/><circle class="cls-18" cx="54.48" cy="262.69" r="2.76"/><line class="cls-19" x1="58.98" y1="161.21" x2="58.98" y2="168.59"/><line class="cls-19" x1="52.56" y1="161.21" x2="52.56" y2="172.44"/><rect class="cls-20" x="205.57" y="206.38" width="126" height="104" rx="3" ry="3"/><rect class="cls-9" x="207.07" y="207.94" width="122.86" height="29.86" rx="2" ry="2"/><line class="cls-20" x1="206.07" y1="238.38" x2="332.07" y2="238.38"/><line class="cls-21" x1="227.07" y1="214.88" x2="227.07" y2="200.88"/><line class="cls-21" x1="309.07" y1="214.88" x2="309.07" y2="200.88"/><path class="cls-9" d="M207.07,240.38h11a0,0,0,0,1,0,0v68a0,0,0,0,1,0,0h-8a3,3,0,0,1-3-3v-65A0,0,0,0,1,207.07,240.38Z"/><rect class="cls-22" x="233.57" y="287.38" width="9" height="9" rx="1" ry="1"/><rect class="cls-22" x="249.57" y="287.38" width="9" height="9" rx="1" ry="1"/><rect class="cls-22" x="265.57" y="287.38" width="9" height="9" rx="1" ry="1"/><rect class="cls-22" x="281.57" y="287.38" width="9" height="9" rx="1" ry="1"/><rect class="cls-22" x="298.57" y="287.38" width="9" height="9" rx="1" ry="1"/><rect class="cls-22" x="233.57" y="270.38" width="9" height="9" rx="1" ry="1"/><rect class="cls-22" x="249.57" y="270.38" width="9" height="9" rx="1" ry="1"/><rect class="cls-22" x="249.57" y="252.38" width="9" height="9" rx="1" ry="1"/><rect class="cls-22" x="233.57" y="252.38" width="9" height="9" rx="1" ry="1"/><rect class="cls-22" x="265.57" y="270.38" width="9" height="9" rx="1" ry="1"/><rect class="cls-23" x="281.57" y="270.38" width="9" height="9" rx="1" ry="1"/><rect class="cls-22" x="298.57" y="270.38" width="9" height="9" rx="1" ry="1"/><rect class="cls-22" x="298.57" y="252.38" width="9" height="9" rx="1" ry="1"/><rect class="cls-22" x="281.57" y="252.38" width="9" height="9" rx="1" ry="1"/><rect class="cls-22" x="265.57" y="252.38" width="9" height="9" rx="1" ry="1"/><circle class="cls-6" cx="227.52" cy="219.29" r="4.82"/><circle class="cls-6" cx="309.63" cy="219.29" r="4.82"/></g></g></svg>