<svg xmlns="http://www.w3.org/2000/svg" viewBox="0 0 139.05 177.5"><defs><style>.cls-1,.cls-2{fill:#a4df90;}.cls-1,.cls-3,.cls-4,.cls-7{stroke:#438e29;stroke-linejoin:round;}.cls-1,.cls-3,.cls-4{stroke-width:1.78px;}.cls-3,.cls-6{fill:none;}.cls-4,.cls-7{fill:#fff;}.cls-5{fill:#51af33;opacity:0.1;}.cls-6{stroke:#fff;stroke-miterlimit:10;stroke-width:3.56px;}.cls-7{stroke-linecap:round;stroke-width:3.29px;}</style></defs><title>Asset 10</title><g id="Layer_2" data-name="Layer 2"><g id="Layer_2-2" data-name="Layer 2"><polygon class="cls-1" points="69.54 114.27 45.04 176.61 29.81 151.74 0.89 159.84 25.59 96.99 69.54 114.27"/><polygon class="cls-1" points="69.5 114.27 94 176.61 109.24 151.74 138.16 159.84 113.46 96.99 69.5 114.27"/><path class="cls-2" d="M132.38,61.45c0,6.44-8,11.54-9.86,17.35-2,6,1.43,14.82-2.22,19.84s-13.13,4.55-18.19,8.23-7.42,12.81-13.44,14.76c-5.81,1.89-13.11-4-19.55-4s-13.74,5.93-19.55,4c-6-2-8.43-11.11-13.44-14.76s-14.5-3.17-18.19-8.23-.26-13.81-2.22-19.84C13.82,73,5.85,67.89,5.85,61.45s8-11.54,9.86-17.35c2-6-1.43-14.82,2.22-19.84S31.05,19.71,36.12,16,43.53,3.22,49.56,1.26c5.81-1.89,13.11,4,19.55,4s13.74-5.93,19.55-4c6,2,8.43,11.11,13.44,14.76s14.5,3.17,18.19,8.23.26,13.81,2.22,19.84C124.4,49.9,132.38,55,132.38,61.45Z"/><path class="cls-3" d="M132.38,61.45c0,6.44-8,11.54-9.86,17.35-2,6,1.43,14.82-2.22,19.84s-13.13,4.55-18.19,8.23-7.42,12.81-13.44,14.76c-5.81,1.89-13.11-4-19.55-4s-13.74,5.93-19.55,4c-6-2-8.43-11.11-13.44-14.76s-14.5-3.17-18.19-8.23-.26-13.81-2.22-19.84C13.82,73,5.85,67.89,5.85,61.45s8-11.54,9.86-17.35c2-6-1.43-14.82,2.22-19.84S31.05,19.71,36.12,16,43.53,3.22,49.56,1.26c5.81-1.89,13.11,4,19.55,4s13.74-5.93,19.55-4c6,2,8.43,11.11,13.44,14.76s14.5,3.17,18.19,8.23.26,13.81,2.22,19.84C124.4,49.9,132.38,55,132.38,61.45Z"/><circle class="cls-4" cx="69.11" cy="61.45" r="41.91"/><path class="cls-5" d="M39.48,91.08A41.91,41.91,0,0,1,98.75,31.81"/><line class="cls-6" x1="73.57" y1="21.25" x2="73.57" y2="41.56"/><line class="cls-6" x1="64.66" y1="21.25" x2="64.66" y2="41.56"/><line class="cls-7" x1="47.71" y1="60.88" x2="61.45" y2="74.62"/><line class="cls-7" x1="89.69" y1="47.7" x2="62.21" y2="75.19"/></g></g></svg>