<?xml version="1.0" encoding="UTF-8" standalone="no"?>
<svg width="34px" height="45px" viewBox="0 0 34 45" version="1.1" xmlns="http://www.w3.org/2000/svg" xmlns:xlink="http://www.w3.org/1999/xlink" xmlns:sketch="http://www.bohemiancoding.com/sketch/ns">
    <!-- Generator: Sketch 3.3.3 (12072) - http://www.bohemiancoding.com/sketch -->
    <title>Artboard 73</title>
    <desc>Created with Sketch.</desc>
    <defs></defs>
    <g id="Page-1" stroke="none" stroke-width="1" fill="none" fill-rule="evenodd" sketch:type="MSPage">
        <g id="Artboard-73" sketch:type="MSArtboardGroup">
            <g id="Imported-Layers" sketch:type="MSLayerGroup" transform="translate(1.000000, 0.000000)">
                <path d="M15.1286797,3.80873596 L29.4203399,10.6362606 C29.4203399,10.6362606 31.6515556,20.9129055 28.0261438,28.7464055 C24.400732,36.5794744 16.1045752,40.3166322 15.4771242,40.3166322 C14.8496732,40.3166322 14.3615163,37.9450656 14.3615163,37.9450656 L15.1286797,3.80873596" id="Fill-1" fill="#254F17" sketch:type="MSShapeGroup"></path>
                <path d="M31.0366536,8.69459434 C31.2566797,8.80799834 31.4286013,8.97098965 31.5528366,9.18356825 C31.6762353,9.39614686 31.7381438,9.62985397 31.7381438,9.88512077 L31.7381438,20.7727674 C31.7381438,22.2759095 31.6415163,23.7005742 31.4495163,25.0471928 C31.2566797,26.3942427 30.9751634,27.6839437 30.6032941,28.9171583 C30.2322614,30.1508041 29.7579085,31.3202021 29.1802353,32.4262145 C28.6025621,33.5317957 27.9282614,34.5813217 27.1585882,35.5730678 C25.9476078,37.1331274 24.4902484,38.56426 22.7852549,39.8686217 C21.0794248,41.1725521 18.9749542,42.4769137 16.4726797,43.7817066 C16.3902745,43.8097342 16.3007582,43.8377618 16.204549,43.8666518 C16.1079216,43.8946794 16.0046013,43.9089088 15.8950065,43.9089088 C15.7845752,43.9089088 15.6816732,43.8946794 15.5854641,43.8666518 C15.4888366,43.8377618 15.3997386,43.8097342 15.3173333,43.7817066 C12.8142222,42.4769137 10.7101699,41.1725521 9.00475817,39.8686217 C7.2989281,38.56426 5.84156863,37.1331274 4.63142484,35.5730678 C3.86133333,34.5813217 3.18745098,33.5317957 2.60977778,32.4262145 C2.03210458,31.3202021 1.55775163,30.1508041 1.18671895,28.9171583 C0.814849673,27.6839437 0.532496732,26.3942427 0.340915033,25.0471928 C0.147660131,23.7005742 0.051869281,22.2759095 0.051869281,20.7727674 L0.051869281,9.88512077 C0.051869281,9.62985397 0.113777778,9.39614686 0.237176471,9.18356825 C0.361411765,8.97098965 0.532496732,8.80799834 0.753359477,8.69459434 L15.2763399,0.528643754 C15.3587451,0.47215735 15.4545359,0.429900345 15.5649673,0.401010352 C15.6745621,0.372982747 15.7845752,0.358322153 15.8950065,0.358322153 C16.0046013,0.358322153 16.1146144,0.372982747 16.2250458,0.401010352 C16.3346405,0.429900345 16.431268,0.47215735 16.5140915,0.528643754 L31.0366536,8.69459434 L31.0366536,8.69459434 Z M27.7772549,20.7727674 L27.7772549,11.5012356 L15.8950065,4.82419765 L15.8950065,39.4861527 C17.7928366,38.4650854 19.3949281,37.4306512 20.701281,36.3811252 C22.007634,35.3324616 23.1286797,34.2122197 24.064,33.0212621 C24.6964706,32.2278653 25.2398431,31.3913491 25.6941176,30.5121447 C26.1475556,29.6338026 26.525281,28.6981118 26.828549,27.7050722 C27.1585882,26.6564086 27.3991111,25.5650567 27.5501176,24.4305855 C27.7015425,23.2965455 27.7772549,22.0775602 27.7772549,20.7727674 L27.7772549,20.7727674 Z" id="Fill-2" fill="#438E29" sketch:type="MSShapeGroup"></path>
                <path d="M21.9620392,18.4960635 C22.2711634,18.4960635 22.5338562,18.6073115 22.7501176,18.8302388 C22.9663791,19.053166 23.0743007,19.3239558 23.0743007,19.6421769 L23.0743007,31.1076235 C23.0743007,31.4262758 22.9663791,31.6966344 22.7501176,31.9195616 C22.5338562,32.1424889 22.2711634,32.2541681 21.9620392,32.2541681 L9.35696732,32.2541681 C9.04784314,32.2541681 8.78515033,32.1424889 8.56888889,31.9195616 C8.35262745,31.6966344 8.24470588,31.4262758 8.24470588,31.1076235 L8.24470588,19.6421769 C8.24470588,19.3239558 8.35262745,19.053166 8.56888889,18.8302388 C8.78515033,18.6073115 9.04784314,18.4960635 9.35696732,18.4960635 L9.7275817,18.4960635 L9.7275817,13.9098849 C9.7275817,12.651661 10.1638693,11.5728138 11.0368627,10.6733433 C11.9094379,9.77344155 12.9560261,9.32370628 14.1766275,9.32370628 L17.1423791,9.32370628 C18.3629804,9.32370628 19.4095686,9.77344155 20.2821438,10.6733433 C21.1551373,11.5728138 21.5914248,12.651661 21.5914248,13.9098849 L21.5914248,18.4960635 L21.9620392,18.4960635 L21.9620392,18.4960635 Z M12.6933333,13.9098849 L12.6933333,18.4960635 L18.6252549,18.4960635 L18.6252549,13.9098849 C18.6252549,13.4959387 18.4788497,13.1376166 18.1852026,12.8349184 C17.8915556,12.5322203 17.5439477,12.3808712 17.1423791,12.3808712 L14.1766275,12.3808712 C13.7746405,12.3808712 13.4270327,12.5322203 13.1338039,12.8349184 C12.8401569,13.1376166 12.6933333,13.4959387 12.6933333,13.9098849 L12.6933333,13.9098849 Z" id="Fill-3" fill="#FFFFFF" sketch:type="MSShapeGroup"></path>
            </g>
        </g>
    </g>
</svg>
